<svg width="41" height="40" viewBox="0 0 41 40" fill="none" xmlns="http://www.w3.org/2000/svg">
<path d="M12.5361 15H14.2028M14.2028 15H27.5361M14.2028 15V26.6667C14.2028 27.1087 14.3784 27.5326 14.691 27.8452C15.0035 28.1577 15.4274 28.3333 15.8695 28.3333H24.2028C24.6448 28.3333 25.0687 28.1577 25.3813 27.8452C25.6939 27.5326 25.8695 27.1087 25.8695 26.6667V15H14.2028ZM16.7028 15V13.3333C16.7028 12.8913 16.8784 12.4674 17.191 12.1548C17.5035 11.8423 17.9274 11.6667 18.3695 11.6667H21.7028C22.1448 11.6667 22.5687 11.8423 22.8813 12.1548C23.1939 12.4674 23.3695 12.8913 23.3695 13.3333V15M18.3695 19.1667V24.1667M21.7028 19.1667V24.1667" stroke="#667085" stroke-width="1.66667" stroke-linecap="round" stroke-linejoin="round"/>
</svg>
