<svg width="41" height="40" viewBox="0 0 41 40" fill="none" xmlns="http://www.w3.org/2000/svg">
<path d="M25.1328 12.5C25.3517 12.2811 25.6115 12.1075 25.8975 11.989C26.1835 11.8706 26.49 11.8096 26.7995 11.8096C27.109 11.8096 27.4155 11.8706 27.7015 11.989C27.9874 12.1075 28.2473 12.2811 28.4661 12.5C28.685 12.7189 28.8586 12.9787 28.9771 13.2647C29.0955 13.5506 29.1565 13.8571 29.1565 14.1667C29.1565 14.4762 29.0955 14.7827 28.9771 15.0686C28.8586 15.3546 28.685 15.6145 28.4661 15.8333L17.2161 27.0833L12.6328 28.3333L13.8828 23.75L25.1328 12.5Z" stroke="#667085" stroke-width="1.66667" stroke-linecap="round" stroke-linejoin="round"/>
</svg>
